<svg xmlns="http://www.w3.org/2000/svg" xmlns:xlink="http://www.w3.org/1999/xlink" preserveAspectRatio="xMidYMid" width="128.719" height="48.563" viewBox="0 0 128.719 48.563">
  <defs>
    <style>
      .cls-1 {
        fill: #579e10;
        fill-rule: evenodd;
      }
    </style>
  </defs>
  <path d="M127.948,4.856 L127.948,1.128 L127.087,4.856 L126.369,4.856 L125.518,1.128 L125.518,4.856 L124.755,4.856 L124.755,0.182 L126.011,0.182 L126.744,3.405 L127.455,0.182 L128.712,0.182 L128.712,4.856 L127.948,4.856 ZM123.092,4.856 L122.291,4.856 L122.291,0.998 L121.074,0.998 L121.074,0.182 L124.281,0.182 L124.281,0.998 L123.092,0.998 L123.092,4.856 ZM113.997,16.384 C114.956,16.798 115.723,17.184 116.300,17.544 C116.877,17.902 117.371,18.409 117.790,19.056 C118.209,19.707 118.418,20.530 118.418,21.524 C118.418,22.940 117.962,24.070 117.048,24.912 C116.136,25.750 114.931,26.174 113.441,26.174 C111.832,26.174 110.272,25.678 108.760,24.691 L108.760,21.391 C109.629,22.078 110.396,22.581 111.065,22.895 C111.734,23.210 112.440,23.366 113.191,23.366 C114.459,23.366 115.093,22.895 115.093,21.953 C115.093,21.628 114.966,21.327 114.713,21.042 C114.459,20.755 113.848,20.411 112.878,19.998 C111.911,19.591 111.144,19.209 110.577,18.861 C110.010,18.508 109.522,18.008 109.109,17.357 C108.697,16.705 108.492,15.874 108.492,14.856 C108.492,13.542 108.942,12.479 109.839,11.671 C110.736,10.863 111.936,10.460 113.441,10.460 C114.826,10.460 116.291,10.856 117.832,11.645 L117.832,14.640 C116.110,13.726 114.741,13.266 113.721,13.266 C113.138,13.266 112.674,13.381 112.333,13.615 C111.986,13.843 111.815,14.148 111.815,14.528 C111.815,14.822 111.939,15.100 112.186,15.362 C112.434,15.624 113.039,15.965 113.997,16.384 ZM99.123,25.974 L93.764,25.974 L93.764,10.656 L99.484,10.656 C101.693,10.656 103.439,11.372 104.726,12.802 C106.010,14.232 106.654,16.076 106.654,18.345 C106.654,20.721 106.000,22.585 104.698,23.944 C103.395,25.297 101.534,25.974 99.123,25.974 ZM102.229,14.763 C101.494,13.899 100.441,13.463 99.066,13.463 L96.997,13.463 L96.997,23.168 L99.104,23.168 C100.470,23.168 101.516,22.723 102.241,21.837 C102.964,20.948 103.328,19.778 103.328,18.322 C103.328,16.817 102.961,15.630 102.229,14.763 ZM84.025,26.174 C81.828,26.174 80.037,25.399 78.658,23.848 C77.277,22.300 76.586,20.455 76.586,18.322 C76.586,16.227 77.273,14.388 78.643,12.817 C80.015,11.245 81.809,10.460 84.025,10.460 C86.233,10.460 88.024,11.249 89.389,12.824 C90.759,14.400 91.444,16.230 91.444,18.322 C91.444,20.440 90.749,22.281 89.365,23.838 C87.976,25.396 86.195,26.174 84.025,26.174 ZM86.987,14.935 C86.237,14.078 85.250,13.651 84.025,13.651 C82.791,13.651 81.799,14.078 81.048,14.935 C80.298,15.787 79.920,16.919 79.920,18.322 C79.920,19.717 80.298,20.844 81.048,21.706 C81.799,22.560 82.791,22.992 84.025,22.992 C85.250,22.992 86.237,22.560 86.987,21.706 C87.735,20.844 88.110,19.717 88.110,18.322 C88.110,16.919 87.735,15.787 86.987,14.935 ZM74.998,11.607 C73.764,11.607 72.991,11.329 72.536,10.891 C75.568,7.929 79.088,6.079 79.088,6.079 C79.088,6.079 75.128,7.227 72.067,10.088 C71.613,8.096 74.354,4.753 76.087,3.887 C79.554,2.024 81.560,1.736 83.724,-0.008 C83.724,-0.008 83.571,11.607 74.998,11.607 ZM74.805,18.322 C74.805,20.440 74.111,22.281 72.725,23.838 C71.337,25.396 69.556,26.174 67.385,26.174 C65.189,26.174 63.398,25.399 62.020,23.848 C60.638,22.300 59.947,20.455 59.947,18.322 C59.947,16.227 60.635,14.388 62.004,12.817 C63.376,11.245 65.170,10.460 67.385,10.460 C69.594,10.460 71.385,11.249 72.751,12.824 C74.120,14.400 74.805,16.230 74.805,18.322 ZM70.349,14.935 C69.597,14.078 68.611,13.651 67.385,13.651 C66.152,13.651 65.161,14.078 64.409,14.935 C63.659,15.787 63.281,16.919 63.281,18.322 C63.281,19.717 63.659,20.844 64.409,21.706 C65.161,22.560 66.152,22.992 67.385,22.992 C68.611,22.992 69.597,22.560 70.349,21.706 C71.096,20.844 71.470,19.717 71.470,18.322 C71.470,16.919 71.096,15.787 70.349,14.935 ZM52.251,25.974 L49.019,25.974 L49.019,10.656 L57.950,10.656 L57.950,13.463 L52.251,13.463 L52.251,16.885 L57.950,16.885 L57.950,19.691 L52.251,19.691 L52.251,25.974 ZM30.932,16.162 L30.932,25.974 L27.702,25.974 L27.702,10.656 L30.662,10.656 L37.591,20.021 L37.591,10.656 L40.823,10.656 L40.823,25.974 L38.100,25.974 L30.932,16.162 ZM18.400,26.174 C16.344,26.174 14.750,25.586 13.615,24.418 C12.477,23.246 11.910,21.566 11.910,19.373 L11.910,10.656 L15.149,10.656 L15.149,19.463 C15.149,20.530 15.447,21.383 16.036,22.027 C16.629,22.670 17.403,22.992 18.362,22.992 C19.361,22.992 20.156,22.663 20.752,22.004 C21.351,21.351 21.649,20.415 21.649,19.197 L21.649,10.656 L24.881,10.656 L24.881,19.352 C24.881,21.589 24.321,23.284 23.199,24.441 C22.080,25.594 20.479,26.174 18.400,26.174 ZM5.511,16.384 C6.471,16.798 7.238,17.184 7.815,17.544 C8.392,17.902 8.886,18.409 9.304,19.056 C9.723,19.707 9.932,20.530 9.932,21.524 C9.932,22.940 9.476,24.070 8.563,24.912 C7.650,25.750 6.446,26.174 4.955,26.174 C3.346,26.174 1.787,25.678 0.274,24.691 L0.274,21.391 C1.143,22.078 1.910,22.581 2.579,22.895 C3.248,23.210 3.954,23.366 4.706,23.366 C5.974,23.366 6.607,22.895 6.607,21.953 C6.607,21.628 6.481,21.327 6.227,21.042 C5.974,20.755 5.362,20.411 4.392,19.998 C3.425,19.591 2.658,19.209 2.091,18.861 C1.524,18.508 1.036,18.008 0.624,17.357 C0.212,16.705 0.006,15.874 0.006,14.856 C0.006,13.542 0.456,12.479 1.353,11.671 C2.250,10.863 3.451,10.460 4.955,10.460 C6.341,10.460 7.806,10.856 9.346,11.645 L9.346,14.640 C7.624,13.726 6.255,13.266 5.236,13.266 C4.652,13.266 4.189,13.381 3.847,13.615 C3.501,13.843 3.330,14.148 3.330,14.528 C3.330,14.822 3.454,15.100 3.701,15.362 C3.948,15.624 4.553,15.965 5.511,16.384 ZM118.187,48.548 L0.360,48.548 L0.360,29.745 L118.187,29.745 L118.187,48.548 ZM28.159,39.310 C28.456,39.310 28.648,39.330 28.734,39.372 C28.821,39.413 28.891,39.490 28.940,39.604 C28.990,39.720 29.015,39.901 29.015,40.152 L29.015,40.517 L29.940,40.517 L29.940,36.900 L29.015,36.900 L29.015,37.225 C29.015,37.524 28.995,37.722 28.952,37.824 C28.912,37.924 28.843,37.997 28.749,38.043 C28.653,38.092 28.468,38.114 28.196,38.114 L27.832,38.114 L27.832,35.979 L28.938,35.979 C29.281,35.979 29.581,36.023 29.839,36.111 C30.096,36.199 30.332,36.379 30.544,36.649 C30.757,36.920 30.943,37.275 31.102,37.715 L32.044,37.317 L31.218,34.612 L25.173,34.612 L25.173,35.797 L25.494,35.797 C25.679,35.797 25.801,35.817 25.863,35.854 C25.925,35.893 25.971,35.951 26.001,36.029 C26.029,36.108 26.046,36.272 26.046,36.527 L26.046,41.188 C26.046,41.472 26.037,41.646 26.019,41.708 C25.986,41.812 25.925,41.882 25.841,41.922 C25.760,41.964 25.597,41.985 25.354,41.985 L25.173,41.985 L25.173,43.168 L31.437,43.168 L32.386,39.990 L31.437,39.604 C31.305,40.074 31.117,40.479 30.872,40.820 C30.627,41.162 30.350,41.411 30.039,41.564 C29.728,41.717 29.344,41.793 28.891,41.793 L28.283,41.793 C28.117,41.793 28.009,41.781 27.958,41.757 C27.909,41.732 27.875,41.697 27.857,41.652 C27.839,41.609 27.832,41.479 27.832,41.272 L27.832,39.310 L28.159,39.310 ZM40.945,41.985 L40.805,41.985 C40.596,41.985 40.437,41.947 40.326,41.873 C40.243,41.820 40.112,41.650 39.930,41.365 L37.844,38.035 L39.594,36.244 C39.728,36.105 39.838,36.005 39.924,35.945 C40.009,35.881 40.080,35.841 40.140,35.824 C40.199,35.806 40.303,35.797 40.456,35.797 L40.565,35.797 L40.565,34.612 L37.288,34.612 L37.288,35.797 L37.578,35.797 C37.742,35.797 37.843,35.809 37.883,35.840 C37.922,35.869 37.942,35.910 37.942,35.969 C37.942,35.996 37.931,36.029 37.912,36.069 C37.891,36.108 37.830,36.182 37.729,36.293 L35.471,38.764 L35.471,36.490 C35.471,36.264 35.488,36.111 35.526,36.029 C35.561,35.948 35.622,35.884 35.705,35.840 C35.756,35.809 35.894,35.797 36.120,35.797 L36.354,35.797 L36.354,34.612 L32.823,34.612 L32.823,35.797 L33.118,35.797 C33.297,35.797 33.423,35.818 33.493,35.861 C33.561,35.903 33.611,35.969 33.643,36.054 C33.674,36.141 33.689,36.310 33.689,36.564 L33.689,41.235 C33.689,41.501 33.675,41.669 33.647,41.738 C33.616,41.824 33.567,41.887 33.498,41.927 C33.426,41.964 33.291,41.985 33.086,41.985 L32.823,41.985 L32.823,43.168 L36.354,43.168 L36.354,41.985 L36.058,41.985 C35.863,41.985 35.735,41.966 35.671,41.931 C35.606,41.898 35.558,41.838 35.523,41.757 C35.488,41.674 35.471,41.529 35.471,41.315 L35.471,40.451 L36.572,39.340 L37.844,41.479 C37.951,41.664 38.004,41.781 38.004,41.830 C38.004,41.876 37.975,41.911 37.919,41.941 C37.862,41.969 37.701,41.985 37.433,41.985 L37.288,41.985 L37.288,43.168 L40.945,43.168 L40.945,41.985 ZM48.011,35.705 C47.298,34.878 46.368,34.465 45.219,34.465 C44.052,34.465 43.108,34.880 42.386,35.710 C41.664,36.539 41.303,37.608 41.303,38.912 C41.303,40.315 41.714,41.434 42.539,42.271 C43.220,42.965 44.096,43.314 45.167,43.314 C45.978,43.314 46.668,43.132 47.241,42.766 C47.813,42.399 48.264,41.881 48.588,41.204 C48.915,40.531 49.077,39.758 49.077,38.886 C49.077,37.591 48.721,36.531 48.011,35.705 ZM52.765,39.316 L49.950,39.316 L49.950,40.781 L52.765,40.781 L52.765,39.316 ZM57.442,35.979 C57.994,35.979 58.434,36.103 58.760,36.353 C59.087,36.599 59.370,37.055 59.609,37.715 L60.549,37.317 L59.725,34.612 L53.678,34.612 L53.678,35.797 L53.922,35.797 C54.198,35.797 54.373,35.843 54.441,35.937 C54.511,36.031 54.547,36.227 54.547,36.527 L54.547,41.230 C54.547,41.544 54.518,41.750 54.463,41.843 C54.408,41.936 54.262,41.985 54.027,41.985 L53.678,41.985 L53.678,43.168 L57.927,43.168 C58.893,43.168 59.591,42.908 60.026,42.391 C60.458,41.873 60.674,41.275 60.674,40.592 C60.674,39.855 60.435,39.241 59.960,38.747 C59.483,38.250 58.827,38.002 57.989,38.002 L56.337,38.002 L56.337,35.979 L57.442,35.979 ZM67.748,36.161 C67.621,35.838 67.444,35.555 67.214,35.318 C66.985,35.082 66.709,34.903 66.390,34.788 C66.069,34.671 65.666,34.612 65.181,34.612 L61.353,34.612 L61.353,35.797 L61.702,35.797 C61.871,35.797 61.986,35.817 62.046,35.854 C62.109,35.893 62.151,35.954 62.180,36.039 C62.208,36.121 62.222,36.296 62.222,36.556 L62.222,41.261 C62.222,41.510 62.206,41.674 62.174,41.755 C62.144,41.833 62.092,41.893 62.023,41.928 C61.954,41.966 61.812,41.985 61.598,41.985 L61.353,41.985 L61.353,43.168 L64.885,43.168 L64.885,41.985 L64.516,41.985 C64.363,41.985 64.255,41.966 64.191,41.928 C64.127,41.893 64.080,41.833 64.049,41.757 C64.025,41.704 64.012,41.576 64.012,41.378 L64.012,39.777 L65.249,39.777 C66.086,39.777 66.745,39.531 67.219,39.034 C67.696,38.539 67.933,37.926 67.933,37.193 C67.933,36.831 67.871,36.485 67.748,36.161 ZM71.341,39.310 C71.639,39.310 71.830,39.330 71.916,39.372 C72.003,39.413 72.072,39.490 72.122,39.604 C72.173,39.720 72.197,39.901 72.197,40.152 L72.197,40.517 L73.122,40.517 L73.122,36.900 L72.197,36.900 L72.197,37.225 C72.197,37.524 72.178,37.722 72.135,37.824 C72.094,37.924 72.025,37.997 71.931,38.043 C71.836,38.092 71.651,38.114 71.378,38.114 L71.014,38.114 L71.014,35.979 L72.121,35.979 C72.463,35.979 72.763,36.023 73.021,36.111 C73.278,36.199 73.514,36.379 73.727,36.649 C73.940,36.920 74.125,37.275 74.285,37.715 L75.226,37.317 L74.400,34.612 L68.355,34.612 L68.355,35.797 L68.676,35.797 C68.860,35.797 68.983,35.817 69.045,35.854 C69.107,35.893 69.153,35.951 69.184,36.029 C69.212,36.108 69.228,36.272 69.228,36.527 L69.228,41.188 C69.228,41.472 69.219,41.646 69.201,41.708 C69.167,41.812 69.107,41.882 69.024,41.922 C68.942,41.964 68.779,41.985 68.536,41.985 L68.355,41.985 L68.355,43.168 L74.618,43.168 L75.568,39.990 L74.618,39.604 C74.487,40.074 74.299,40.479 74.055,40.820 C73.810,41.162 73.532,41.411 73.222,41.564 C72.910,41.717 72.527,41.793 72.072,41.793 L71.465,41.793 C71.299,41.793 71.192,41.781 71.141,41.757 C71.090,41.732 71.057,41.697 71.039,41.652 C71.022,41.609 71.014,41.479 71.014,41.272 L71.014,39.310 L71.341,39.310 ZM83.950,41.985 L83.742,41.985 C83.500,41.985 83.345,41.966 83.278,41.931 C83.211,41.898 83.160,41.838 83.127,41.755 C83.093,41.671 83.078,41.485 83.078,41.200 L83.078,36.564 C83.078,36.281 83.090,36.103 83.117,36.024 C83.143,35.950 83.188,35.893 83.255,35.854 C83.320,35.817 83.454,35.797 83.654,35.797 L83.950,35.797 L83.950,34.612 L80.402,34.612 L80.402,35.797 L80.678,35.797 C80.903,35.797 81.048,35.814 81.113,35.851 C81.181,35.887 81.227,35.956 81.255,36.054 C81.275,36.123 81.285,36.256 81.285,36.452 L81.285,38.054 L78.648,38.054 L78.648,36.564 C78.648,36.297 78.662,36.123 78.688,36.043 C78.717,35.965 78.763,35.903 78.829,35.861 C78.896,35.818 79.018,35.797 79.197,35.797 L79.525,35.797 L79.525,34.612 L75.989,34.612 L75.989,35.797 L76.311,35.797 C76.490,35.797 76.611,35.817 76.675,35.859 C76.737,35.897 76.783,35.963 76.811,36.051 C76.841,36.139 76.856,36.327 76.856,36.617 L76.856,41.266 C76.856,41.515 76.841,41.677 76.811,41.750 C76.783,41.824 76.728,41.882 76.648,41.922 C76.568,41.964 76.429,41.985 76.228,41.985 L75.989,41.985 L75.989,43.168 L79.525,43.168 L79.525,41.985 L79.280,41.985 C79.059,41.985 78.912,41.967 78.839,41.933 C78.766,41.900 78.714,41.833 78.678,41.732 C78.659,41.662 78.648,41.485 78.648,41.200 L78.648,39.390 L81.285,39.390 L81.285,41.200 C81.285,41.485 81.272,41.666 81.241,41.744 C81.213,41.822 81.158,41.882 81.080,41.922 C81.002,41.964 80.855,41.985 80.637,41.985 L80.402,41.985 L80.402,43.168 L83.950,43.168 L83.950,41.985 ZM92.602,41.985 L92.394,41.985 C92.097,41.985 91.913,41.942 91.842,41.860 C91.771,41.773 91.736,41.553 91.736,41.200 L91.736,36.564 C91.736,36.225 91.768,36.011 91.833,35.926 C91.900,35.840 92.058,35.797 92.311,35.797 L92.602,35.797 L92.602,34.612 L86.126,34.612 L86.126,35.797 L86.447,35.797 C86.860,35.797 87.066,35.969 87.066,36.312 C87.066,36.390 87.049,36.492 87.015,36.617 L85.737,41.352 C85.622,41.773 85.394,41.985 85.051,41.985 L84.786,41.985 L84.017,44.505 L84.959,44.904 C85.123,44.408 85.359,43.996 85.664,43.665 C85.968,43.333 86.455,43.168 87.123,43.168 L90.260,43.168 C90.932,43.168 91.419,43.335 91.725,43.668 C92.030,44.000 92.264,44.413 92.425,44.904 L93.371,44.505 L92.602,41.985 ZM87.009,41.513 C87.009,41.447 87.022,41.368 87.045,41.272 L88.369,35.956 L89.943,35.956 L89.943,41.830 L87.513,41.830 C87.175,41.830 87.009,41.725 87.009,41.513 ZM65.462,38.301 C65.285,38.392 65.008,38.439 64.631,38.439 L64.012,38.439 L64.012,36.011 L64.817,36.011 C65.191,36.011 65.473,36.097 65.664,36.269 C65.920,36.496 66.049,36.808 66.049,37.199 C66.049,37.461 65.994,37.688 65.888,37.878 C65.779,38.068 65.637,38.209 65.462,38.301 ZM58.132,39.446 C58.306,39.514 58.460,39.647 58.593,39.842 C58.728,40.041 58.793,40.287 58.793,40.586 C58.793,40.909 58.698,41.188 58.506,41.421 C58.313,41.658 57.998,41.775 57.558,41.775 L56.337,41.775 L56.337,39.340 L57.370,39.340 C57.703,39.340 57.957,39.375 58.132,39.446 ZM45.187,41.954 C44.648,41.954 44.214,41.713 43.884,41.230 C43.502,40.666 43.312,39.898 43.312,38.930 C43.312,37.962 43.517,37.171 43.926,36.556 C44.250,36.069 44.689,35.827 45.240,35.827 C45.568,35.827 45.872,35.943 46.153,36.170 C46.434,36.400 46.656,36.746 46.821,37.206 C46.986,37.669 47.068,38.239 47.068,38.918 C47.068,39.883 46.876,40.653 46.491,41.230 C46.165,41.713 45.731,41.954 45.187,41.954 Z" class="cls-1"/>
</svg>
